<svg xmlns="http://www.w3.org/2000/svg" width="32" height="32" viewBox="0 0 32 32">
  <g fill="none">
    <path fill="#504ABF" d="M3.29051517e-18,1 L-5.21804822e-15,30.9920806 C-5.15041284e-15,31.5443653 0.44771525,31.9920806 1,31.9920806 C1.29563701,31.9920806 1.57612232,31.8612666 1.76612555,31.6347715 L6.10618758,26.4611613 L31,26.4611613 C31.5522847,26.4611613 32,26.013446 32,25.4611613 L32,1 C32,0.44771525 31.5522847,-1.66037179e-16 31,-5.55111512e-16 L1,0 C0.44771525,1.01453063e-16 -6.76353751e-17,0.44771525 0,1 Z"/>
    <g fill="#FFF" transform="translate(9 6)">
      <path d="M3.77956933,6.92393587 L0.352424564,0.979232642 C0.172285064,0.666763826 0.27955917,0.267425885 0.592027986,0.0872863848 C0.691220387,0.0301015759 0.803703837,-7.81386684e-14 0.918199403,-7.81597009e-14 L3.39194374,-7.79376563e-14 C3.62646318,-7.77724417e-14 3.84297584,0.125748821 3.95918706,0.329450369 L7.76436341,6.99937755 C7.88386267,7.20884259 7.87820175,7.4671148 7.74963936,7.67114271 L3.96336489,13.6799428 C3.84377959,13.8697241 3.63516146,13.9848497 3.41084562,13.9848497 L0.964115062,13.9848497 C0.603439307,13.9848497 0.311053838,13.6924643 0.311053838,13.3317885 C0.311053838,13.2097219 0.345265182,13.0900985 0.409806478,12.9864902 L3.76810307,7.59540565 C3.89553145,7.39084446 3.89993913,7.13272855 3.77956933,6.92393587 Z"/>
      <path d="M10.8322892,6.92393587 L7.40514445,0.979232642 C7.22500495,0.666763826 7.33227906,0.267425885 7.64474787,0.0872863848 C7.74394028,0.0301015759 7.85642373,-8.51330735e-14 7.97091929,-8.5154106e-14 L10.4446636,-8.53761506e-14 C10.6791831,-8.54192311e-14 10.8956957,0.125748821 11.0119069,0.329450369 L14.8170833,6.99937755 C14.9365826,7.20884259 14.9309216,7.4671148 14.8023593,7.67114271 L11.0160848,13.6799428 C10.8964995,13.8697241 10.6878813,13.9848497 10.4635655,13.9848497 L8.01683495,13.9848497 C7.6561592,13.9848497 7.36377373,13.6924643 7.36377373,13.3317885 C7.36377373,13.2097219 7.39798507,13.0900985 7.46252637,12.9864902 L10.820823,7.59540565 C10.9482513,7.39084446 10.952659,7.13272855 10.8322892,6.92393587 Z"/>
    </g>
  </g>
</svg>
